<svg xmlns="http://www.w3.org/2000/svg" viewBox="0 0 64 64" id="Arrow"><g fill="#7e9096" class="color222222 svgShape"><path d="M32 60.94A28.95 28.95 0 0 1 6.89 17.6a2 2 0 1 1 3.47 2 24.93 24.93 0 1 0 5.84-6.9 2 2 0 1 1-2.54-3.09A28.94 28.94 0 1 1 32 60.94Z" fill="#31bef1" class="color000000 svgShape"></path><path d="M43.74 34H20.26a2 2 0 0 1 0-4h23.48a2 2 0 1 1 0 4zm-19.01-5.32a2 2 0 0 1-1.29-.47 2 2 0 0 1-.25-2.82l4.95-5.89a2 2 0 1 1 3.06 2.57L26.26 28a2 2 0 0 1-1.53.68z" fill="#31bef1" class="color000000 svgShape"></path><path d="M29.67 45.21a2 2 0 0 1-1.53-.71l-9.41-11.21a2 2 0 0 1 3.06-2.58l9.41 11.22a2 2 0 0 1-1.53 3.28Z" fill="#31bef1" class="color000000 svgShape"></path></g></svg>